<svg width="24" height="24" viewBox="0 0 24 24" fill="none" xmlns="http://www.w3.org/2000/svg">
<g id="twemoji:flag-mexico" clip-path="url(#clip0_518_4990)">
<path id="Vector" d="M2.66667 3.3335C1.95942 3.3335 1.28115 3.61445 0.781048 4.11454C0.280952 4.61464 0 5.29292 0 6.00016L0 18.0002C0 18.7074 0.280952 19.3857 0.781048 19.8858C1.28115 20.3859 1.95942 20.6668 2.66667 20.6668H7.33333V3.3335H2.66667Z" fill="#006847"/>
<path id="Vector_2" d="M21.3332 3.3335H16.6665V20.6668H21.3332C22.0404 20.6668 22.7187 20.3859 23.2188 19.8858C23.7189 19.3857 23.9998 18.7074 23.9998 18.0002V6.00016C23.9998 5.29292 23.7189 4.61464 23.2188 4.11454C22.7187 3.61445 22.0404 3.3335 21.3332 3.3335Z" fill="#CE1126"/>
<path id="Vector_3" d="M7.3335 3.3335H16.6668V20.6668H7.3335V3.3335Z" fill="#EEEEEE"/>
<path id="Vector_4" d="M15.3333 12C15.3333 12.8841 14.9821 13.7319 14.357 14.357C13.7319 14.9821 12.8841 15.3333 12 15.3333C11.1159 15.3333 10.2681 14.9821 9.64298 14.357C9.01786 13.7319 8.66667 12.8841 8.66667 12H8C8 13.0609 8.42143 14.0783 9.17157 14.8284C9.92172 15.5786 10.9391 16 12 16C13.0609 16 14.0783 15.5786 14.8284 14.8284C15.5786 14.0783 16 13.0609 16 12H15.3333Z" fill="#A6D388"/>
<path id="Vector_5" d="M9.02888 13.5127C9.00898 13.4737 8.98158 13.439 8.94826 13.4106C8.91493 13.3822 8.87633 13.3606 8.83467 13.3471C8.793 13.3336 8.74908 13.3284 8.70542 13.3319C8.66176 13.3354 8.61921 13.3475 8.58021 13.3674C8.54114 13.3872 8.50636 13.4146 8.47787 13.4479C8.44938 13.4812 8.42774 13.5198 8.41417 13.5614C8.40061 13.6031 8.3954 13.6471 8.39884 13.6907C8.40228 13.7344 8.4143 13.777 8.43421 13.8161C8.49421 13.9343 8.55999 14.0489 8.63155 14.1601L8.63421 14.1647L8.63955 14.1727L8.64155 14.1774L8.64221 14.1787L8.64488 14.1821L8.64688 14.1861V14.1874L8.64888 14.1907L8.64955 14.1921L8.65155 14.1954L8.65221 14.1967L8.65421 14.1994L8.65555 14.2014L8.65688 14.2034L8.65755 14.2054L8.65955 14.2087L8.66021 14.2094L8.66155 14.2114L8.66355 14.2154L8.66421 14.2167L8.66621 14.2201L8.66688 14.2214L8.67155 14.2281V14.2287L8.67488 14.2334C8.70955 14.2841 8.74532 14.3349 8.78221 14.3847C8.80825 14.4197 8.84094 14.4492 8.87841 14.4716C8.91588 14.4939 8.95739 14.5086 9.00056 14.5149C9.04373 14.5212 9.08772 14.5188 9.12999 14.508C9.17226 14.4973 9.21198 14.4782 9.24688 14.4521C9.31772 14.3993 9.36474 14.3206 9.37762 14.2333C9.39049 14.1459 9.36817 14.057 9.31555 13.9861C9.20918 13.8351 9.11339 13.6769 9.02888 13.5127ZM8.69755 12.4581C8.67187 12.2741 8.66161 12.0884 8.66688 11.9027C8.66939 11.8144 8.63675 11.7287 8.57612 11.6645C8.5155 11.6002 8.43185 11.5627 8.34355 11.5601L8.31955 11.5607C8.23541 11.5644 8.15578 11.5998 8.09666 11.6598C8.03755 11.7197 8.00333 11.7999 8.00088 11.8841C7.99931 11.9532 7.99909 12.0223 8.00021 12.0914V12.1514L8.00088 12.1547V12.1734L8.00155 12.1754L8.00088 12.1767V12.1787L8.00155 12.1801V12.1994L8.00221 12.2014V12.2087L8.00288 12.2214L8.00355 12.2274V12.2347C8.00977 12.3414 8.01999 12.4474 8.03421 12.5527C8.04662 12.6398 8.09297 12.7185 8.16316 12.7716C8.23335 12.8247 8.32168 12.8478 8.40888 12.8361C8.45271 12.8303 8.49497 12.816 8.53323 12.7938C8.57149 12.7717 8.605 12.7422 8.63182 12.7071C8.65865 12.672 8.67827 12.6319 8.68955 12.5891C8.70083 12.5464 8.70355 12.5019 8.69755 12.4581ZM12.2269 15.3247L12.2229 15.3254L12.1402 15.3307C11.9823 15.3373 11.8241 15.3326 11.6669 15.3167C11.5789 15.3079 11.491 15.3343 11.4226 15.3903C11.3541 15.4462 11.3107 15.5271 11.3019 15.6151C11.293 15.703 11.3195 15.7909 11.3755 15.8593C11.4314 15.9278 11.5122 15.9712 11.6002 15.9801L11.6835 15.9874L11.6862 15.9881L11.6875 15.9874L11.6895 15.9881H11.6909L11.6949 15.9887H11.6989L11.7009 15.9894L11.7055 15.9887L11.7075 15.9894H11.7109L11.7149 15.9901L11.7182 15.9907H11.7269L11.7309 15.9914H11.7395C11.8409 15.9985 11.9429 16.0012 12.0455 15.9994H12.0715L12.0762 15.9987L12.0802 15.9994H12.0902L12.0935 15.9987H12.1062L12.1102 15.9981L12.1142 15.9987L12.1149 15.9981L12.1189 15.9987H12.1195L12.1229 15.9981H12.1282L12.1322 15.9974H12.1362L12.1369 15.9981L12.1409 15.9974H12.1455L12.1489 15.9967H12.1622L12.1655 15.9961H12.1682L12.1709 15.9954L12.1735 15.9961H12.1769L12.1795 15.9954H12.1829L12.2675 15.9907C12.3539 15.9837 12.434 15.943 12.4905 15.8774C12.547 15.8117 12.5754 15.7265 12.5695 15.6401C12.5678 15.5968 12.5576 15.5544 12.5394 15.5151C12.5213 15.4758 12.4955 15.4405 12.4637 15.4112C12.4319 15.3819 12.3946 15.3592 12.3539 15.3444C12.3133 15.3295 12.2701 15.3228 12.2269 15.3247ZM10.6009 15.0261C10.4327 14.9483 10.2712 14.8567 10.1182 14.7521C10.0589 14.7114 9.98804 14.6911 9.91621 14.6941C9.8464 14.697 9.77928 14.7218 9.72434 14.765C9.66939 14.8082 9.62941 14.8675 9.61003 14.9346C9.59064 15.0018 9.59285 15.0733 9.61633 15.1391C9.63981 15.2049 9.68338 15.2617 9.74088 15.3014L9.74155 15.3021L9.74555 15.3041L9.74955 15.3081L9.75355 15.3107L9.75755 15.3141C9.93532 15.4349 10.1224 15.5407 10.3189 15.6314C10.399 15.6684 10.4905 15.6721 10.5734 15.6418C10.6562 15.6114 10.7237 15.5494 10.7609 15.4694C10.7984 15.3894 10.8027 15.2977 10.7727 15.2146C10.7427 15.1315 10.6809 15.0636 10.6009 15.0261ZM13.9542 14.7607C13.8954 14.7636 13.8383 14.782 13.7889 14.8141C13.6332 14.9135 13.4695 14.9998 13.2995 15.0721C13.2262 15.1012 13.1656 15.1555 13.1287 15.2252C13.0917 15.2949 13.0808 15.3755 13.0979 15.4525C13.115 15.5296 13.159 15.598 13.222 15.6456C13.2849 15.6931 13.3628 15.7167 13.4415 15.7121C13.4812 15.7105 13.5202 15.702 13.5569 15.6867L13.6462 15.6467H13.6475L13.6515 15.6441L13.6529 15.6434L13.6555 15.6421H13.6582L13.6609 15.6407L13.6622 15.6394L13.6662 15.6387L13.6675 15.6374L13.6695 15.6361L13.6729 15.6347L13.6749 15.6341L13.6782 15.6327L13.6795 15.6321L13.6829 15.6307L13.6842 15.6301C13.6855 15.6287 13.6867 15.6281 13.6875 15.6281L13.6889 15.6274L13.6929 15.6254H13.6942L13.6982 15.6234L13.7022 15.6214L13.7035 15.6207L13.7069 15.6187L13.7082 15.6181L13.7122 15.6161L13.7129 15.6154L13.7175 15.6147L13.7222 15.6121L13.7235 15.6114L13.7262 15.6094H13.7275L13.7315 15.6067L13.7369 15.6054L13.7409 15.6027L13.7462 15.6001L13.7469 15.5994L13.7562 15.5954L13.7609 15.5934L13.7702 15.5881L13.7755 15.5861L13.7795 15.5841L13.7895 15.5787L13.7935 15.5767L13.8089 15.5687L13.8135 15.5674L13.8229 15.5621L13.8275 15.5594H13.8282C13.8287 15.5585 13.8302 15.5581 13.8329 15.5581C13.8342 15.5563 13.8355 15.5552 13.8369 15.5547L13.8422 15.5521L13.8462 15.5501V15.5494L13.8555 15.5454L13.8609 15.5427L13.8615 15.5421L13.8649 15.5401L13.8702 15.5374L13.8742 15.5354H13.8755L13.8795 15.5327L13.8842 15.5301L13.8849 15.5294L13.8889 15.5274L13.8929 15.5254L13.8942 15.5247L13.8969 15.5227L13.8989 15.5221L13.9022 15.5201L13.9035 15.5194L13.9069 15.5174L13.9082 15.5167L13.9122 15.5154C13.9118 15.5149 13.912 15.5147 13.9129 15.5147L13.9169 15.5127L13.9182 15.5121L13.9209 15.5101L13.9222 15.5094L13.9262 15.5074L13.9275 15.5067C13.9275 15.5058 13.9284 15.5052 13.9302 15.5047L13.9322 15.5041L13.9349 15.5027L13.9369 15.5014L13.9395 15.5001L13.9415 15.4987L13.9435 15.4974L13.9455 15.4954L13.9489 15.4947L13.9515 15.4941L13.9529 15.4927L13.9555 15.4914L13.9582 15.4894L13.9595 15.4887L13.9622 15.4874L13.9649 15.4854L13.9669 15.4841C13.9678 15.4845 13.9689 15.4843 13.9702 15.4834L13.9715 15.4821L13.9742 15.4807L13.9762 15.4794L13.9782 15.4781L13.9809 15.4767L13.9835 15.4747L13.9849 15.4741C13.9867 15.4741 13.9884 15.4734 13.9902 15.4721C13.9889 15.4716 13.9889 15.4721 13.9902 15.4721L13.9929 15.4701L13.9975 15.4667L13.9989 15.4661L14.0035 15.4641L14.0115 15.4594L14.0169 15.4561L14.0302 15.4487C14.0729 15.4234 14.1158 15.3974 14.1575 15.3707C14.2319 15.3231 14.2844 15.2479 14.3034 15.1617C14.3224 15.0754 14.3064 14.9852 14.2589 14.9107C14.224 14.863 14.178 14.8244 14.125 14.7983C14.0719 14.7722 14.0133 14.7593 13.9542 14.7607ZM15.6682 11.6821L15.6522 11.6827C15.5665 11.6863 15.4855 11.7229 15.426 11.7847C15.3665 11.8465 15.3331 11.9289 15.3329 12.0147C15.3329 12.1994 15.3162 12.3861 15.2849 12.5674C15.27 12.6546 15.2904 12.7442 15.3416 12.8164C15.3928 12.8886 15.4706 12.9375 15.5579 12.9524C15.6451 12.9672 15.7347 12.9468 15.8069 12.8956C15.8791 12.8444 15.928 12.7666 15.9429 12.6794V12.6761L15.9435 12.6747L15.9442 12.6734L15.9435 12.6721L15.9442 12.6707V12.6694L15.9449 12.6681V12.6661L15.9455 12.6647V12.6587L15.9469 12.6561V12.6521C15.9613 12.5656 15.9729 12.4786 15.9815 12.3914L15.9809 12.3907L15.9815 12.3887L15.9822 12.3854V12.3781L15.9835 12.3761L15.9829 12.3734V12.3721L15.9835 12.3701V12.3674L15.9849 12.3667L15.9835 12.3647V12.3621C15.9849 12.3612 15.9853 12.3605 15.9849 12.3601V12.3474L15.9862 12.3454C15.9954 12.2356 16.0001 12.1249 16.0002 12.0147C16 11.9267 15.965 11.8423 15.9028 11.7799C15.8406 11.7176 15.7563 11.6824 15.6682 11.6821ZM15.3729 13.4794C15.3345 13.4582 15.2924 13.4447 15.2489 13.4398C15.2053 13.4349 15.1612 13.4386 15.1191 13.4507C15.077 13.4629 15.0377 13.4832 15.0035 13.5105C14.9692 13.5379 14.9407 13.5717 14.9195 13.6101C14.8297 13.7722 14.7264 13.9265 14.6109 14.0714C14.5564 14.1407 14.5316 14.2287 14.5419 14.3162C14.5521 14.4037 14.5966 14.4836 14.6656 14.5384C14.7346 14.5932 14.8225 14.6184 14.91 14.6086C14.9976 14.5988 15.0777 14.5548 15.1329 14.4861C15.2107 14.3883 15.284 14.2872 15.3529 14.1827C15.3547 14.1783 15.3571 14.1738 15.3602 14.1694L15.3609 14.1687L15.3635 14.1647L15.3662 14.1594C15.368 14.1581 15.3689 14.1567 15.3689 14.1554L15.3695 14.1561L15.3722 14.1521V14.1514L15.3742 14.1467L15.3755 14.1461L15.3782 14.1421L15.3802 14.1381L15.3809 14.1374L15.3835 14.1334L15.3842 14.1321L15.3855 14.1287L15.3875 14.1274L15.3889 14.1241H15.3902L15.3915 14.1201L15.3922 14.1187L15.3949 14.1161L15.3955 14.1147C15.3955 14.1134 15.3962 14.1123 15.3975 14.1114L15.3982 14.1094L15.4009 14.1074C15.4009 14.1065 15.4013 14.1058 15.4022 14.1054V14.1027L15.4042 14.1014L15.4062 14.0981L15.4069 14.0967L15.4089 14.0927L15.4102 14.0914L15.4115 14.0887L15.4129 14.0867C15.4129 14.0858 15.4133 14.0852 15.4142 14.0847C15.4142 14.0838 15.4147 14.0832 15.4155 14.0827L15.4175 14.0794L15.4182 14.0774L15.4195 14.0754L15.4209 14.0734C15.4222 14.0725 15.4227 14.0718 15.4222 14.0714C15.4235 14.0709 15.424 14.0701 15.4235 14.0687L15.4249 14.0667L15.4269 14.0641L15.4289 14.0614V14.0594L15.4302 14.0574L15.4322 14.0547L15.4342 14.0527V14.0507L15.4369 14.0474V14.0454C15.4382 14.0449 15.4389 14.0441 15.4389 14.0427L15.4402 14.0414L15.4415 14.0394L15.4435 14.0361L15.4449 14.0341V14.0327L15.4475 14.0294C15.4475 14.0285 15.448 14.0278 15.4489 14.0274L15.4495 14.0254L15.4515 14.0227L15.4529 14.0201L15.4542 14.0181L15.4555 14.0154C15.4555 14.0145 15.456 14.0141 15.4569 14.0141L15.4582 14.0107L15.4595 14.0094L15.4609 14.0054L15.4622 14.0047L15.4635 14.0021L15.4649 14.0007L15.4662 13.9974L15.4675 13.9961L15.4689 13.9921C15.4698 13.9912 15.4698 13.9907 15.4689 13.9907L15.4715 13.9874L15.4722 13.9861L15.4749 13.9827V13.9821L15.4769 13.9781L15.4782 13.9767L15.4795 13.9727L15.4829 13.9687L15.4849 13.9647V13.9641L15.4875 13.9594L15.4889 13.9587L15.5055 13.9274C15.5466 13.8502 15.5557 13.76 15.5308 13.6763C15.506 13.5925 15.4493 13.5218 15.3729 13.4794Z" fill="#5C913B"/>
<path id="Vector_6" d="M12 14.6668C13.1046 14.6668 14 14.3684 14 14.0002C14 13.632 13.1046 13.3335 12 13.3335C10.8954 13.3335 10 13.632 10 14.0002C10 14.3684 10.8954 14.6668 12 14.6668Z" fill="#55ACEE"/>
<path id="Vector_7" d="M12.3335 14.6668C12.8858 14.6668 13.3335 14.3684 13.3335 14.0002C13.3335 13.632 12.8858 13.3335 12.3335 13.3335C11.7812 13.3335 11.3335 13.632 11.3335 14.0002C11.3335 14.3684 11.7812 14.6668 12.3335 14.6668Z" fill="#FFCC4D"/>
<path id="Vector_8" d="M12.7446 14.1825C12.687 14.182 12.6304 14.1667 12.5804 14.138C12.5305 14.1093 12.4887 14.0683 12.4592 14.0187C12.4298 13.9692 12.4135 13.913 12.4121 13.8553C12.4107 13.7977 12.4242 13.7407 12.4512 13.6899C12.5579 13.4934 12.6695 13.3167 12.7859 13.1599C12.6904 13.1639 12.5948 13.1659 12.4992 13.1659C12.3152 13.1659 12.1472 13.0159 12.1472 12.8319C12.1472 12.6479 12.2772 12.4985 12.4619 12.4985L12.5166 12.4992C12.7139 12.4992 12.9166 12.4872 13.0979 12.4705C13.1484 12.4654 13.1994 12.4722 13.2469 12.4902C13.2943 12.5083 13.3369 12.5371 13.3712 12.5745C13.3801 12.567 13.3897 12.5601 13.3999 12.5539C13.4666 12.5099 13.5288 12.4741 13.5866 12.4465C13.6279 12.4149 13.6761 12.3935 13.7272 12.3839L13.7512 12.3792C13.8766 12.3385 13.9646 12.3332 13.9999 12.3332C14.0521 12.333 14.1036 12.3451 14.1503 12.3686C14.1969 12.392 14.2374 12.4261 14.2683 12.4682C14.2993 12.5102 14.32 12.5589 14.3286 12.6104C14.3372 12.6619 14.3335 12.7147 14.3179 12.7645C14.2632 12.9419 14.1412 12.9819 13.9272 13.0245C13.8713 13.0469 13.8181 13.0755 13.7686 13.1099C13.7082 13.1488 13.637 13.1675 13.5652 13.1634C13.4935 13.1594 13.4249 13.1327 13.3692 13.0872C13.4146 13.1458 13.4391 13.2179 13.4388 13.2921C13.4386 13.3662 13.4136 13.4382 13.3679 13.4965C13.2541 13.6419 13.1439 13.8125 13.0372 14.0085C13.0086 14.0611 12.9663 14.1051 12.9148 14.1357C12.8633 14.1663 12.8045 14.1825 12.7446 14.1825ZM11.7979 13.1232L11.7539 13.1205C11.5158 13.0896 11.2804 13.0403 11.0499 12.9732C11.0079 12.9607 10.9688 12.9401 10.9348 12.9125C10.9008 12.8849 10.8725 12.8509 10.8516 12.8124C10.8308 12.7739 10.8177 12.7317 10.8132 12.6881C10.8087 12.6445 10.8128 12.6005 10.8252 12.5585L10.8292 12.5452L10.8212 12.5605C10.7999 12.5988 10.7712 12.6324 10.7368 12.6595C10.7024 12.6867 10.6629 12.7067 10.6208 12.7186C10.5786 12.7305 10.5345 12.734 10.491 12.7288C10.4475 12.7236 10.4055 12.71 10.3672 12.6885C10.1452 12.5667 9.94155 12.4138 9.76258 12.2345C9.70186 12.1716 9.66826 12.0875 9.66902 12.0001C9.66978 11.9127 9.70484 11.829 9.76664 11.7672C9.82844 11.7054 9.91205 11.6704 9.99945 11.6696C10.0868 11.6689 10.171 11.7025 10.2339 11.7632C10.3659 11.8952 10.5188 12.0096 10.6926 12.1065C10.7605 12.1446 10.813 12.2052 10.8408 12.2779C10.8687 12.3506 10.8703 12.4308 10.8452 12.5045C10.8803 12.4343 10.9389 12.3788 11.0108 12.3476C11.0828 12.3163 11.1634 12.3115 11.2386 12.3339C11.4226 12.3885 11.6246 12.4305 11.8386 12.4592C11.9225 12.4699 11.9993 12.5121 12.0533 12.5773C12.1073 12.6425 12.1344 12.7258 12.1292 12.8102C12.1241 12.8947 12.0869 12.9741 12.0254 13.0322C11.9639 13.0903 11.8826 13.1228 11.7979 13.1232ZM10.1632 11.5639C9.87925 11.5639 9.51191 11.4539 9.28925 11.1912C8.94791 10.7885 8.74725 10.2719 8.77791 9.87585C8.78591 9.76985 8.68258 9.68452 8.58125 9.65785C8.52325 9.64252 8.42125 9.63318 8.37325 9.73652C8.36406 9.75639 8.35104 9.77426 8.33494 9.7891C8.31884 9.80394 8.29998 9.81547 8.27943 9.82302C8.25887 9.83058 8.23703 9.83401 8.21516 9.83312C8.19328 9.83223 8.17179 9.82704 8.15191 9.81785C8.13204 9.80866 8.11417 9.79564 8.09933 9.77954C8.08449 9.76345 8.07296 9.74458 8.06541 9.72403C8.05786 9.70348 8.05443 9.68164 8.05531 9.65976C8.0562 9.63788 8.06139 9.61639 8.07058 9.59652C8.17458 9.37052 8.40791 9.26985 8.66525 9.33518C8.90391 9.39718 9.13258 9.61185 9.10991 9.90185C9.08591 10.2099 9.26058 10.6412 9.54325 10.9752C9.69191 11.1512 9.95058 11.2225 10.1266 11.2292C10.2699 11.2365 10.3426 11.2039 10.3579 11.1899C10.3206 11.1012 9.82658 10.8412 9.61591 10.7305C9.43658 10.6365 9.38325 10.5072 9.36991 10.4159C9.32525 10.1125 9.63658 9.80518 9.93791 9.50918C10.0439 9.40452 10.1446 9.30585 10.1992 9.23318C10.2612 9.15118 10.2512 9.09652 10.2392 9.06252C10.1932 8.93785 9.99391 8.81452 9.75391 8.76118C9.53125 8.71141 9.3828 8.60496 9.30858 8.44185C9.21191 8.22785 9.26325 7.94785 9.46458 7.58518C9.47522 7.56606 9.48952 7.54921 9.50667 7.53561C9.52381 7.522 9.54347 7.51191 9.56452 7.50591C9.58557 7.4999 9.60759 7.4981 9.62934 7.50061C9.65108 7.50312 9.67212 7.50988 9.69125 7.52052C9.71038 7.53116 9.72722 7.54546 9.74083 7.5626C9.75443 7.57975 9.76452 7.59941 9.77053 7.62046C9.77653 7.64151 9.77833 7.66353 9.77582 7.68527C9.77332 7.70702 9.76655 7.72806 9.75591 7.74718C9.56591 8.08852 9.58458 8.24318 9.61258 8.30518C9.64058 8.36652 9.71169 8.40985 9.82591 8.43518C10.1079 8.49785 10.4472 8.66518 10.5512 8.94652C10.6106 9.10718 10.5806 9.28052 10.4659 9.43318C10.3966 9.52585 10.2872 9.63318 10.1719 9.74718C9.99991 9.91652 9.67925 10.2319 9.69991 10.3679C9.70391 10.3959 9.74058 10.4205 9.77125 10.4359C10.2719 10.6985 10.6046 10.8885 10.6726 11.1212C10.6843 11.1609 10.6879 11.2026 10.6831 11.2437C10.6783 11.2849 10.6652 11.3246 10.6446 11.3605C10.5799 11.4732 10.4452 11.5425 10.2546 11.5599C10.2257 11.5625 10.1952 11.5639 10.1632 11.5639Z" fill="#5C913B"/>
<path id="Vector_9" d="M12.9998 12.6668C13.1839 12.6668 13.3332 12.3684 13.3332 12.0002C13.3332 11.632 13.1839 11.3335 12.9998 11.3335C12.8157 11.3335 12.6665 11.632 12.6665 12.0002C12.6665 12.3684 12.8157 12.6668 12.9998 12.6668Z" fill="#FFCC4D"/>
<path id="Vector_10" d="M11.528 11.4586C11.528 11.6506 11.298 11.806 11.014 11.806C10.7307 11.806 10.5 11.6506 10.5 11.4586C10.5 11.2666 10.73 11.1113 11.014 11.1113C11.2974 11.1113 11.528 11.2666 11.528 11.4586ZM10.7367 8.37398C10.77 8.51531 10.5854 8.68065 10.324 8.74265C10.0627 8.80465 9.82402 8.73998 9.79002 8.59865C9.75669 8.45664 9.94135 8.29131 10.202 8.22931C10.464 8.16798 10.7034 8.23198 10.7367 8.37398Z" fill="#FFCC4D"/>
<path id="Vector_11" d="M15.022 11.9698C15.082 12.0165 15.184 11.4838 15.1687 11.3178C15.1687 11.3065 15.1493 10.9538 15.224 10.7018C15.27 10.6165 15.2727 9.9798 15.202 9.81246C15.258 9.8078 15.3253 9.7898 15.3333 9.7218C15.0747 9.81713 15.014 9.17713 14.7653 8.80913C14.524 8.44046 14.2247 8.2258 13.912 8.0018C13.9383 7.93647 13.9747 7.87572 14.02 7.8218C13.6367 8.0138 13.0393 7.31846 12.1567 7.37046C11.9587 7.3898 11.8647 7.4018 11.814 7.52313C11.6493 7.53646 11.482 7.5738 11.482 7.79046C11.482 7.84246 11.5293 7.93713 11.6347 7.9378C11.7787 7.9798 11.896 7.94713 11.994 8.14846L12.02 8.35646C12.02 8.35646 11.8913 8.1918 11.8207 8.1658L11.864 8.07713C11.7973 8.03846 11.6793 8.0698 11.6793 8.0698C11.6793 8.0698 11.4227 7.9498 11.2167 7.9818L11.1767 7.81513C11.1407 7.9178 11.06 7.91246 11.0487 8.00913C11.026 7.9398 10.996 7.8538 10.9747 7.78446C10.902 7.88313 10.9233 7.9898 10.8973 8.09246C10.8693 8.11646 10.812 8.11713 10.7973 8.05113C10.79 7.9698 10.78 7.96246 10.78 7.8658C10.728 7.95713 10.6653 8.0018 10.6447 8.15846L10.5893 7.98513C10.5913 8.1898 10.4153 8.3118 10.2487 8.45646C10.2013 8.54313 10.256 8.5438 10.26 8.58846L10.348 8.63246L10.506 8.62113C10.532 8.6538 10.5107 8.65646 10.5793 8.67713C10.7633 8.72846 10.9927 8.5078 11.1727 8.85513C11.09 8.92446 11.0067 9.08646 11.0333 9.11713C11.0667 9.11713 10.9667 9.1638 11.1013 9.12113C10.9613 9.25713 10.8667 9.43646 10.8667 9.44713C10.8507 9.4858 10.9227 9.4418 10.908 9.5118L10.9413 9.5078C10.622 9.85313 10.9307 10.2245 10.8967 10.4238C10.95 10.5098 10.9567 10.4218 11.0233 10.4131C11.0793 10.6585 11.2407 10.8071 11.3393 11.0011L11.1313 11.0031C11.136 11.0951 11.2193 11.1825 11.2853 11.2631L11.146 11.3071C11.0561 11.3514 10.9763 11.4135 10.9113 11.4898C10.8653 11.6018 11.1333 11.6285 11.2627 11.6485L11.258 11.7838C11.46 11.8031 11.6933 11.7431 11.6933 11.7318L11.744 11.6925L11.858 11.7551C11.896 11.7551 11.9553 11.6031 11.928 11.4865C12.0013 11.5738 12.0707 11.7145 12.144 11.8025L12.2127 11.7931C12.2753 11.8925 12.3613 11.9911 12.424 12.0905L12.494 12.1171C12.5347 12.1031 12.5693 12.0985 12.5913 12.0185L12.6233 12.0745L12.734 11.9985L12.8113 11.9831L12.8693 12.0778C12.9033 12.0651 12.9367 11.9911 12.9387 11.9125C12.9733 11.9811 12.9827 11.9758 13.008 11.9938L13.0593 11.8858L13.336 12.1445L13.5453 12.1565C13.62 12.2071 13.8247 12.2391 13.8593 12.1571C14.0273 12.2291 14.2253 12.1478 14.2153 12.0678C14.37 12.1291 14.608 12.0878 14.608 12.0778C14.6367 12.0745 14.71 12.0025 14.6407 11.9485C14.1293 11.5925 13.3713 11.0031 13.0787 10.8611C13.0787 10.7558 12.9993 10.3765 12.914 10.2725L12.9833 10.1565C13.1827 10.3425 13.2547 10.3245 13.3607 10.3538C13.474 10.4438 13.5133 10.5805 13.6267 10.7051L13.728 10.7238C13.6451 10.507 13.5195 10.3091 13.3587 10.1418C13.468 10.1965 13.6493 10.3425 13.7707 10.4485C13.8507 10.5825 13.874 10.6891 13.9473 10.8571C14.0007 10.8911 14.0553 11.0158 14.048 10.9125C14.0353 10.7185 13.8987 10.4111 13.8987 10.3891C14.116 10.5611 14.1133 10.8291 14.1793 10.9925C14.2347 11.0751 14.2627 11.1858 14.2867 11.1598L14.2227 10.6558L14.1853 10.4711C14.346 10.5638 14.4033 10.9171 14.4787 11.3411C14.4787 11.4085 14.506 11.4825 14.502 11.5258C14.5367 11.5685 14.576 11.6865 14.5753 11.6165C14.5753 11.6165 14.5753 10.9271 14.528 10.7691C14.516 10.6845 14.548 10.5471 14.548 10.5471C14.6067 10.8331 14.6693 11.1431 14.7287 11.4285V11.6385L14.8167 11.7271C14.8333 11.5538 14.8533 11.3818 14.8707 11.2098L14.8047 10.5931V10.4171C14.8033 10.3551 14.8613 10.3665 14.898 10.4371C14.9067 10.5885 14.9067 10.7065 14.9127 10.8571C14.9387 11.0291 14.9567 11.1551 14.9693 11.3745C14.9767 11.5518 14.9847 11.9771 15.022 11.9698Z" fill="#C1694F"/>
</g>
<defs>
<clipPath id="clip0_518_4990">
<rect width="24" height="24" fill="white"/>
</clipPath>
</defs>
</svg>
