<svg width="189" height="23" viewBox="0 0 189 23" fill="none" xmlns="http://www.w3.org/2000/svg">
<path d="M83.7659 8.87C83.7659 7.36827 84.1045 6.02113 84.7818 4.82858C85.459 3.6213 86.3792 2.67904 87.5423 2.00179C88.7202 1.32454 90.0231 0.985911 91.4512 0.985911C93.1296 0.985911 94.5946 1.39079 95.846 2.20055C97.0975 3.01031 98.0103 4.15869 98.5845 5.6457H96.1773C95.7503 4.71816 95.132 4.0041 94.3222 3.50352C93.5272 3.00294 92.5702 2.75265 91.4512 2.75265C90.3765 2.75265 89.4121 3.00294 88.5582 3.50352C87.7043 4.0041 87.0344 4.71816 86.5485 5.6457C86.0627 6.55851 85.8197 7.63328 85.8197 8.87C85.8197 10.092 86.0627 11.1668 86.5485 12.0943C87.0344 13.0071 87.7043 13.7138 88.5582 14.2144C89.4121 14.715 90.3765 14.9653 91.4512 14.9653C92.5702 14.9653 93.5272 14.7223 94.3222 14.2365C95.132 13.7359 95.7503 13.0219 96.1773 12.0943H98.5845C98.0103 13.5666 97.0975 14.7076 95.846 15.5174C94.5946 16.3124 93.1296 16.7099 91.4512 16.7099C90.0231 16.7099 88.7202 16.3787 87.5423 15.7161C86.3792 15.0389 85.459 14.104 84.7818 12.9114C84.1045 11.7189 83.7659 10.3717 83.7659 8.87ZM106.854 16.7762C105.721 16.7762 104.69 16.5185 103.762 16.0032C102.85 15.4879 102.128 14.7591 101.598 13.8169C101.083 12.8599 100.825 11.7557 100.825 10.5042C100.825 9.26752 101.09 8.17803 101.62 7.23577C102.165 6.27878 102.901 5.55 103.829 5.04942C104.756 4.53412 105.794 4.27647 106.943 4.27647C108.091 4.27647 109.129 4.53412 110.056 5.04942C110.984 5.55 111.713 6.27142 112.243 7.21368C112.787 8.15595 113.06 9.2528 113.06 10.5042C113.06 11.7557 112.78 12.8599 112.221 13.8169C111.676 14.7591 110.932 15.4879 109.99 16.0032C109.048 16.5185 108.003 16.7762 106.854 16.7762ZM106.854 15.0094C107.576 15.0094 108.253 14.8401 108.886 14.5015C109.519 14.1629 110.027 13.6549 110.41 12.9777C110.807 12.3004 111.006 11.476 111.006 10.5042C111.006 9.53253 110.815 8.70805 110.432 8.0308C110.049 7.35355 109.548 6.85297 108.93 6.52907C108.312 6.19044 107.642 6.02113 106.92 6.02113C106.184 6.02113 105.507 6.19044 104.889 6.52907C104.285 6.85297 103.799 7.35355 103.431 8.0308C103.063 8.70805 102.879 9.53253 102.879 10.5042C102.879 11.4907 103.056 12.3225 103.409 12.9998C103.777 13.677 104.263 14.185 104.867 14.5236C105.47 14.8475 106.133 15.0094 106.854 15.0094ZM121.599 4.25439C123.071 4.25439 124.264 4.70343 125.176 5.60153C126.089 6.4849 126.546 7.76579 126.546 9.4442V16.5774H124.558V9.73129C124.558 8.52402 124.256 7.60384 123.653 6.97075C123.049 6.32295 122.224 5.99905 121.179 5.99905C120.119 5.99905 119.273 6.33031 118.639 6.99284C118.021 7.65537 117.712 8.61972 117.712 9.88588V16.5774H115.702V4.47523H117.712V6.1978C118.109 5.57944 118.647 5.10095 119.324 4.76233C120.016 4.4237 120.774 4.25439 121.599 4.25439ZM134.819 4.27647C135.865 4.27647 136.778 4.50468 137.558 4.96108C138.353 5.41749 138.942 5.99168 139.325 6.68366V4.47523H141.356V16.8424C141.356 17.9466 141.121 18.9257 140.65 19.7796C140.179 20.6483 139.501 21.3255 138.618 21.8114C137.749 22.2973 136.733 22.5402 135.57 22.5402C133.98 22.5402 132.655 22.1647 131.595 21.4139C130.535 20.663 129.909 19.6398 129.718 18.3442H131.706C131.926 19.0803 132.383 19.6692 133.075 20.1109C133.767 20.5673 134.599 20.7955 135.57 20.7955C136.675 20.7955 137.573 20.4495 138.265 19.7576C138.971 19.0656 139.325 18.0939 139.325 16.8424V14.3027C138.927 15.0094 138.338 15.5984 137.558 16.0695C136.778 16.5406 135.865 16.7762 134.819 16.7762C133.745 16.7762 132.766 16.5112 131.882 15.9811C131.014 15.4511 130.329 14.7076 129.828 13.7506C129.328 12.7936 129.078 11.7042 129.078 10.4822C129.078 9.24544 129.328 8.16331 129.828 7.23577C130.329 6.2935 131.014 5.56472 131.882 5.04942C132.766 4.53412 133.745 4.27647 134.819 4.27647ZM139.325 10.5042C139.325 9.59142 139.141 8.79639 138.773 8.11914C138.404 7.44189 137.904 6.92659 137.271 6.57324C136.652 6.20517 135.968 6.02113 135.217 6.02113C134.466 6.02113 133.781 6.1978 133.163 6.55115C132.545 6.9045 132.052 7.4198 131.683 8.09705C131.315 8.77431 131.131 9.56934 131.131 10.4822C131.131 11.4097 131.315 12.2195 131.683 12.9114C132.052 13.5887 132.545 14.1113 133.163 14.4794C133.781 14.8328 134.466 15.0094 135.217 15.0094C135.968 15.0094 136.652 14.8328 137.271 14.4794C137.904 14.1113 138.404 13.5887 138.773 12.9114C139.141 12.2195 139.325 11.4171 139.325 10.5042ZM146.762 6.44073C147.116 5.74876 147.616 5.21137 148.264 4.82858C148.926 4.44578 149.729 4.25439 150.671 4.25439V6.33031H150.141C147.889 6.33031 146.762 7.55231 146.762 9.9963V16.5774H144.753V4.47523H146.762V6.44073ZM164.033 10.0626C164.033 10.4454 164.011 10.8502 163.967 11.2772H154.294C154.368 12.4697 154.772 13.4046 155.509 14.0819C156.26 14.7444 157.165 15.0757 158.225 15.0757C159.094 15.0757 159.815 14.8769 160.389 14.4794C160.978 14.0672 161.39 13.5224 161.626 12.8452H163.79C163.466 14.0083 162.819 14.9579 161.847 15.6941C160.875 16.4155 159.668 16.7762 158.225 16.7762C157.077 16.7762 156.046 16.5185 155.133 16.0032C154.235 15.4879 153.528 14.7591 153.013 13.8169C152.498 12.8599 152.24 11.7557 152.24 10.5042C152.24 9.2528 152.49 8.15595 152.991 7.21368C153.492 6.27142 154.191 5.55 155.089 5.04942C156.002 4.53412 157.047 4.27647 158.225 4.27647C159.373 4.27647 160.389 4.52676 161.273 5.02734C162.156 5.52791 162.833 6.21989 163.304 7.10326C163.79 7.97191 164.033 8.95834 164.033 10.0626ZM161.957 9.64295C161.957 8.87737 161.788 8.2222 161.449 7.67745C161.111 7.11798 160.647 6.69838 160.058 6.41865C159.484 6.12419 158.843 5.97696 158.137 5.97696C157.121 5.97696 156.252 6.30086 155.531 6.94867C154.824 7.59648 154.419 8.49457 154.316 9.64295H161.957ZM170.97 16.7762C170.043 16.7762 169.211 16.6216 168.475 16.3124C167.739 15.9885 167.157 15.5468 166.73 14.9874C166.303 14.4132 166.068 13.758 166.023 13.0219H168.099C168.158 13.6255 168.438 14.1187 168.938 14.5015C169.454 14.8843 170.124 15.0757 170.948 15.0757C171.714 15.0757 172.317 14.9064 172.759 14.5678C173.201 14.2291 173.422 13.8022 173.422 13.2869C173.422 12.7568 173.186 12.3667 172.715 12.1164C172.244 11.8514 171.515 11.5937 170.529 11.3434C169.63 11.1079 168.894 10.8723 168.32 10.6367C167.761 10.3865 167.275 10.0257 166.863 9.55462C166.465 9.06876 166.266 8.43568 166.266 7.65537C166.266 7.03701 166.45 6.47018 166.818 5.95488C167.186 5.43958 167.709 5.0347 168.386 4.74024C169.064 4.43106 169.837 4.27647 170.705 4.27647C172.045 4.27647 173.127 4.6151 173.952 5.29235C174.776 5.9696 175.218 6.89714 175.277 8.07497H173.267C173.223 7.44189 172.965 6.93395 172.494 6.55115C172.038 6.16836 171.419 5.97696 170.639 5.97696C169.918 5.97696 169.343 6.13155 168.916 6.44073C168.489 6.74991 168.276 7.15479 168.276 7.65537C168.276 8.05289 168.401 8.38415 168.651 8.64916C168.916 8.89945 169.24 9.10557 169.623 9.26752C170.021 9.41475 170.565 9.58406 171.257 9.77546C172.126 10.011 172.833 10.2466 173.377 10.4822C173.922 10.703 174.386 11.0416 174.769 11.498C175.166 11.9544 175.372 12.5507 175.387 13.2869C175.387 13.9494 175.203 14.5457 174.835 15.0757C174.467 15.6057 173.944 16.0253 173.267 16.3345C172.604 16.629 171.839 16.7762 170.97 16.7762ZM182.508 16.7762C181.581 16.7762 180.749 16.6216 180.013 16.3124C179.277 15.9885 178.695 15.5468 178.268 14.9874C177.841 14.4132 177.606 13.758 177.562 13.0219H179.637C179.696 13.6255 179.976 14.1187 180.477 14.5015C180.992 14.8843 181.662 15.0757 182.486 15.0757C183.252 15.0757 183.856 14.9064 184.297 14.5678C184.739 14.2291 184.96 13.8022 184.96 13.2869C184.96 12.7568 184.724 12.3667 184.253 12.1164C183.782 11.8514 183.053 11.5937 182.067 11.3434C181.169 11.1079 180.432 10.8723 179.858 10.6367C179.299 10.3865 178.813 10.0257 178.401 9.55462C178.003 9.06876 177.804 8.43568 177.804 7.65537C177.804 7.03701 177.988 6.47018 178.357 5.95488C178.725 5.43958 179.247 5.0347 179.925 4.74024C180.602 4.43106 181.375 4.27647 182.243 4.27647C183.583 4.27647 184.665 4.6151 185.49 5.29235C186.314 5.9696 186.756 6.89714 186.815 8.07497H184.805C184.761 7.44189 184.503 6.93395 184.032 6.55115C183.576 6.16836 182.957 5.97696 182.177 5.97696C181.456 5.97696 180.882 6.13155 180.455 6.44073C180.028 6.74991 179.814 7.15479 179.814 7.65537C179.814 8.05289 179.939 8.38415 180.19 8.64916C180.455 8.89945 180.778 9.10557 181.161 9.26752C181.559 9.41475 182.104 9.58406 182.795 9.77546C183.664 10.011 184.371 10.2466 184.916 10.4822C185.46 10.703 185.924 11.0416 186.307 11.498C186.704 11.9544 186.911 12.5507 186.925 13.2869C186.925 13.9494 186.741 14.5457 186.373 15.0757C186.005 15.6057 185.482 16.0253 184.805 16.3345C184.143 16.629 183.377 16.7762 182.508 16.7762Z" fill="#272D29"/>
<g clip-path="url(#clip0_38_2)">
<path d="M0 4.64489H3.45134L6.4412 13.7834L9.50852 4.64489H12.6904L7.97567 17.3786H4.86963L0 4.64489Z" fill="#272D29"/>
<path d="M16.9083 4.64489H13.8409V17.3786H16.9083V4.64489Z" fill="#272D29"/>
<path d="M63.0711 -2.67029e-05H60.0038V17.3787H63.0711V-2.67029e-05Z" fill="#272D29"/>
<path d="M67.3841 4.64489H64.3168V17.3786H67.3841V4.64489Z" fill="#272D29"/>
<path d="M15.3752 3.59676C16.392 3.59676 17.2162 2.79159 17.2162 1.79837C17.2162 0.805141 16.392 -2.67029e-05 15.3752 -2.67029e-05C14.3584 -2.67029e-05 13.5342 0.805141 13.5342 1.79837C13.5342 2.79159 14.3584 3.59676 15.3752 3.59676Z" fill="#272D29"/>
<path d="M65.8513 3.59676C66.8681 3.59676 67.6923 2.79159 67.6923 1.79837C67.6923 0.805141 66.8681 -2.67029e-05 65.8513 -2.67029e-05C64.8345 -2.67029e-05 64.0103 0.805141 64.0103 1.79837C64.0103 2.79159 64.8345 3.59676 65.8513 3.59676Z" fill="#272D29"/>
<path d="M17.6746 17.3787H20.5886V11.011C20.5886 11.011 20.5886 7.34013 24.9209 7.34013V4.64333C24.9209 4.64333 17.8666 4.30604 17.8666 11.011L17.6746 17.3787Z" fill="#272D29"/>
<path d="M29.2162 6.81685V17.3787H26.1489V0.225368H29.2162V3.97031H32.2448L31.4397 6.81685H29.2162Z" fill="#272D29"/>
<path d="M33.1274 4.64177H35.964V12.1348C35.964 12.1348 36.2319 14.644 38.9926 14.644C41.7534 14.644 42.5198 12.9213 42.5198 11.9851V4.64177L45.2418 4.64492V12.1348C45.2418 12.1348 44.9352 17.3787 39.1846 17.3787C33.434 17.3787 33.1274 12.0229 33.1274 12.0229V4.64177Z" fill="#272D29"/>
<path d="M52.4331 4.64177C48.8333 4.64177 45.9144 7.49303 45.9144 11.0094C45.9144 14.5258 48.8333 17.3787 52.4331 17.3787C53.8998 17.3787 55.2551 16.9058 56.3443 16.1067V17.3787H58.9533V11.0094C58.9533 7.49303 56.0345 4.64177 52.4331 4.64177ZM52.4331 14.674C50.3613 14.674 48.6816 13.0332 48.6816 11.0094C48.6816 8.98565 50.3613 7.34487 52.4331 7.34487C54.5049 7.34487 56.1845 8.98565 56.1845 11.0094C56.1845 13.0332 54.5049 14.674 52.4331 14.674Z" fill="#272D29"/>
<path d="M69.1672 16.6663L70.3934 14.4187C70.3934 14.4187 76.1069 15.5046 75.8762 13.67C75.752 12.6817 74.8855 12.2641 73.9868 12.067C72.6637 11.7786 71.226 11.5926 70.0288 10.9354C68.2491 9.95814 67.9167 7.65065 69.2285 6.1596C70.8936 4.26507 73.9367 4.74737 76.1795 4.957C76.5523 4.99167 76.9234 5.02635 77.2961 5.05629L76.5297 7.34487C75.9359 7.22351 75.3308 7.13682 74.729 7.0722C73.7915 6.97132 72.4587 6.78218 71.5987 7.27079C70.8549 7.69163 71.2309 8.56797 71.8166 8.90999C72.4023 9.25202 73.1203 9.31034 73.7738 9.38599C75.831 9.62399 79.0145 10.7305 78.8677 13.2208C78.6757 16.4787 75.4938 17.7522 69.1672 16.6663Z" fill="#272D29"/>
</g>
<defs>
<clipPath id="clip0_38_2">
<rect width="78.8725" height="17.3787" fill="white"/>
</clipPath>
</defs>
</svg>
