<svg width="56" height="13" viewBox="0 0 56 13" fill="none" xmlns="http://www.w3.org/2000/svg">
<g id="Capa_2" clip-path="url(#clip0_310_716)">
<path id="Vector" d="M0 3.25049H2.41522L4.5075 9.64557L6.65399 3.25049H8.88064L5.58131 12.1615H3.40773L0 3.25049Z" fill="#222222"/>
<path id="Vector_2" d="M11.8325 3.25049H9.68604V12.1615H11.8325V3.25049Z" fill="#222222"/>
<path id="Vector_3" d="M44.1367 0H41.9902V12.1615H44.1367V0Z" fill="#222222"/>
<path id="Vector_4" d="M47.1548 3.25049H45.0083V12.1615H47.1548V3.25049Z" fill="#222222"/>
<path id="Vector_5" d="M10.7595 2.517C11.4711 2.517 12.0479 1.95355 12.0479 1.2585C12.0479 0.56345 11.4711 0 10.7595 0C10.048 0 9.47119 0.56345 9.47119 1.2585C9.47119 1.95355 10.048 2.517 10.7595 2.517Z" fill="#222222"/>
<path id="Vector_6" d="M46.0823 2.517C46.7938 2.517 47.3706 1.95355 47.3706 1.2585C47.3706 0.56345 46.7938 0 46.0823 0C45.3708 0 44.7939 0.56345 44.7939 1.2585C44.7939 1.95355 45.3708 2.517 46.0823 2.517Z" fill="#222222"/>
<path id="Vector_7" d="M12.3687 12.1611H14.4079V7.70508C14.4079 7.70508 14.4079 5.13624 17.4396 5.13624V3.24904C17.4396 3.24904 12.503 3.01301 12.503 7.70508L12.3687 12.1611Z" fill="#222222"/>
<path id="Vector_8" d="M20.4453 4.77038V12.1615H18.2988V0.157715H20.4453V2.7784H22.5647L22.0013 4.77038H20.4453Z" fill="#222222"/>
<path id="Vector_9" d="M23.1821 3.24805H25.1671V8.49162C25.1671 8.49162 25.3546 10.2476 27.2865 10.2476C29.2185 10.2476 29.7548 9.042 29.7548 8.38683V3.24805L31.6597 3.25025V8.49162C31.6597 8.49162 31.4451 12.1612 27.4209 12.1612C23.3967 12.1612 23.1821 8.41331 23.1821 8.41331V3.24805Z" fill="#222222"/>
<path id="Vector_10" d="M36.6921 3.24805C34.173 3.24805 32.1304 5.24334 32.1304 7.70409C32.1304 10.1648 34.173 12.1612 36.6921 12.1612C37.7185 12.1612 38.6669 11.8303 39.4291 11.2711V12.1612H41.2549V7.70409C41.2549 5.24334 39.2123 3.24805 36.6921 3.24805ZM36.6921 10.2685C35.2423 10.2685 34.0668 9.12032 34.0668 7.70409C34.0668 6.28786 35.2423 5.13966 36.6921 5.13966C38.1419 5.13966 39.3173 6.28786 39.3173 7.70409C39.3173 9.12032 38.1419 10.2685 36.6921 10.2685Z" fill="#222222"/>
<path id="Vector_11" d="M48.4027 11.6628L49.2608 10.09C49.2608 10.09 53.2591 10.8499 53.0976 9.56608C53.0107 8.87451 52.4043 8.58222 51.7754 8.44434C50.8495 8.2425 49.8435 8.11235 49.0056 7.6524C47.7602 6.96856 47.5276 5.35379 48.4456 4.31037C49.6109 2.98459 51.7404 3.3221 53.3099 3.4688C53.5707 3.49306 53.8304 3.51733 54.0913 3.53829L53.5549 5.13981C53.1394 5.05488 52.716 4.99422 52.2948 4.949C51.6388 4.87841 50.7061 4.74605 50.1043 5.08797C49.5838 5.38247 49.8468 5.99573 50.2567 6.23507C50.6666 6.47442 51.1691 6.51523 51.6264 6.56817C53.066 6.73472 55.2938 7.50902 55.191 9.25173C55.0567 11.5316 52.83 12.4228 48.4027 11.6628Z" fill="#222222"/>
</g>
<defs>
<clipPath id="clip0_310_716">
<rect width="55.1943" height="12.1615" fill="white"/>
</clipPath>
</defs>
</svg>
